<svg t="1569119862455" class="icon" viewBox="0 0 1024 1024" version="1.1" xmlns="http://www.w3.org/2000/svg" p-id="3092" width="64" height="64"><path d="M984.903762 866.451037l-26.349177-34.131058a21.707353 21.707353 0 0 1 0-26.622226l26.212652-33.926271a21.707353 21.707353 0 0 0 1.501767-24.5061l-36.588494-61.29938a23.140857 23.140857 0 0 0-19.864276-11.126725c-0.887408 0-1.843077 0-2.730485 0.136525l-43.551229 5.051396h-2.730485a23.140857 23.140857 0 0 1-21.161256-13.379375l-17.270315-38.909406A23.004333 23.004333 0 0 0 821.27947 614.359043h-73.176988a23.209119 23.209119 0 0 0-21.161256 13.447637l-17.270316 38.909406a23.140857 23.140857 0 0 1-21.161255 13.447636l-2.730485-0.068262-43.482968-4.983134c-0.95567-0.136524-1.843077-0.136524-2.730485-0.136524a23.072595 23.072595 0 0 0-19.932537 11.126724l-36.656757 61.299381a21.707353 21.707353 0 0 0 1.501767 24.506099l26.280915 33.926272c6.14359 7.918405 6.14359 18.772082 0 26.622225l-26.280915 33.994534a21.570829 21.570829 0 0 0-1.501767 24.437837l36.588495 61.29938c4.095727 6.826212 11.741084 11.126725 19.932537 11.126725 0.887408 0 1.843077 0 2.730485-0.136524l43.482968-4.983135 2.730484-0.068262c9.147124 0 17.543364 5.187921 21.161256 13.447637l17.270316 38.909406c3.686154 8.191454 12.014132 13.447637 21.161256 13.447637h73.176988a23.209119 23.209119 0 0 0 21.161256-13.447637l17.202053-38.909406a23.140857 23.140857 0 0 1 23.89174-13.379375l43.55123 4.983135c0.887408 0.136524 1.843077 0.136524 2.730485 0.136524 8.191454 0 15.768549-4.232251 19.932538-11.126725l36.725018-61.29938a21.570829 21.570829 0 0 0-1.501766-24.437837z m-200.212786 8.191454a55.974935 55.974935 0 0 1-56.384508-55.565363 55.974935 55.974935 0 0 1 56.384508-55.633624 55.974935 55.974935 0 0 1 56.384507 55.633624 55.974935 55.974935 0 0 1-56.384507 55.565363zM628.302468 614.359043s-32.014932 6.348377-59.38804 28.874875c-17.611626 14.403306-28.670089 36.315446-43.482968 64.985534-5.324445 10.239317-10.717152 28.39704-6.348377 51.128325 2.184388 11.331511 10.307579 23.413906 23.891741 40.206386 36.861543 45.326045-17.543364 58.773682-17.543364 81.914539 0 23.209119 15.017665 48.466102 17.543364 53.107926 5.597494 10.239317 19.591227 33.994534 37.817212 53.722285 4.641824 4.983134 15.427238 16.041597 21.161256 20.478635 8.805813 6.894474 16.041597 8.874075 26.349176 15.15419H394.982556C195.657178 1023.931738 33.807701 1023.931738 33.807701 952.461303v-20.615159C36.538186 755.661623 197.500255 614.359043 394.982556 614.359043h233.319912zM238.594049 273.048463a273.048463 273.048463 0 1 1 546.096927 0 273.048463 273.048463 0 0 1-546.096927 0z" p-id="3093"></path></svg>
