<svg t="1569081009999" class="icon" viewBox="0 0 1024 1024" version="1.1" xmlns="http://www.w3.org/2000/svg" p-id="5178" width="64" height="64"><path d="M410.48541563 148.38801901h202.98567225V208.76735525H410.48541563v-60.37933624z m283.28018528 161.88149304c21.8476635 0 41.11039298-17.98890382 41.11039298-40.47037326V87.36866304c0-22.48146944-19.26894326-40.46415948-41.11039298-40.46415948-22.48146944 0-39.82413975 17.98269004-39.82413977 40.46415948v182.43047575c-0.6462335 22.48146944 17.34267031 40.47037326 39.82413977 40.47037326z m-364.86095152 0c21.84144972 0 41.11039298-17.98890382 41.11039298-40.47037326V87.36866304c0-22.48146944-19.27515705-40.46415948-41.11039298-40.46415948-22.48146944 0-39.83035355 17.98269004-39.83035355 40.46415948v182.43047575c0.00621378 22.48146944 17.9951176 40.47037326 39.83035355 40.47037326z" p-id="5179"></path><path d="M851.14210077 148.38801901h-75.79573362V208.76735525h78.36824007c23.12770294 0 42.39043243 19.27515705 42.39043243 42.39664622v140.67384927H127.20523037V251.17021525c0-23.12770294 19.27515705-42.39664621 42.39664621-42.3966462h79.00825979v-60.37933625H173.45442247c-58.45306331 0-105.98850864 48.17546506-105.98850864 106.63474213v617.30834205c0 58.45306331 46.24919211 106.63474213 104.7084692 106.63474213h679.62016502c58.44684951 0 105.98850864-48.18167884 105.98850864-106.63474213V255.02276115c-0.6462335-59.0992968-48.18167884-106.63474213-106.64095592-106.63474214zM287.1480229 857.55472555c-33.39908741 0-61.02556976-27.62026857-61.02556976-61.01935597 0-33.40530119 26.98024884-61.02556976 61.02556976-61.02556976 33.40530119 0 61.02556976 27.62026857 61.02556975 61.02556976 0.00621378 33.39908741-26.98024884 61.01935597-61.02556975 61.01935597z m1.28625323-223.53465496c-33.39908741 0-61.02556976-27.62026857-61.02556976-61.02556976s26.98024884-61.01935597 61.02556976-61.01935597c33.39908741 0 61.02556976 27.61405477 61.02556975 61.01935597 0 34.04532091-27.62026857 61.02556976-61.02556975 61.02556976z m222.90084901 223.53465496c-33.39908741 0-61.02556976-27.62026857-61.02556975-61.01935597 0-33.40530119 26.98024884-61.02556976 61.02556975-61.02556976 33.39908741 0 61.03178354 27.62026857 61.03178354 61.02556976 0 33.39908741-27.62648235 61.01935597-61.03178354 61.01935597z m0-223.53465496c-33.39908741 0-61.02556976-27.62026857-61.02556975-61.02556976s26.98024884-61.01935597 61.02556975-61.01935597c33.39908741 0 61.03178354 27.61405477 61.03178354 61.01935597 0 34.04532091-27.62648235 61.02556976-61.03178354 61.02556976z m222.90084903 0c-33.39908741 0-61.02556976-27.62026857-61.02556976-61.02556976s26.98646262-61.01935597 61.02556976-61.01935597c33.40530119 0 61.01935597 27.61405477 61.01935596 61.01935597-0.64001972 34.04532091-27.61405477 61.02556976-61.01935596 61.02556976z" p-id="5180"></path></svg>
